{
  "asset": {
    "version": "2.0"
  },
  "scenes": [
    {
      "nodes": [
        0,
        1,
        2,
        3,
        4,
        5,
        6,
        7,
        8,
        9,
        10,
        11,
        12,
        13,
        14,
        15,
        16,
        17,
        18,
        19,
        20,
        21,
        22,
        23,
        24,
        25,
        26,
        27
      ]
    }
  ],
  "nodes": [
    {
      "name": "ConfigMaps",
      "mesh": 0,
      "translation": [
        0,
        0,
        0
      ],
      "extras": {
        "id": "ConfigMaps",
        "name": "\"ConfigMaps / Secrets\\n(e.g. cpp-stock-ui-secret, loki-config",
        "type": null,
        "subgraph": "Kubernetes Cluster"
      }
    },
    {
      "name": "IngressCtrl",
      "mesh": 0,
      "translation": [
        0,
        -3,
        0
      ],
      "extras": {
        "id": "IngressCtrl",
        "name": "\"Ingress Controller / Ingress\"",
        "type": null,
        "subgraph": "Kubernetes Cluster"
      }
    },
    {
      "name": "NetPolicies",
      "mesh": 0,
      "translation": [
        0,
        -6,
        0
      ],
      "extras": {
        "id": "NetPolicies",
        "name": "\"Network Policies (conceptual",
        "type": null,
        "subgraph": "Kubernetes Cluster"
      }
    },
    {
      "name": "SvcAccounts",
      "mesh": 0,
      "translation": [
        0,
        -9,
        0
      ],
      "extras": {
        "id": "SvcAccounts",
        "name": "\"ServiceAccounts (per-service",
        "type": null,
        "subgraph": "Kubernetes Cluster"
      }
    },
    {
      "name": "APIServer",
      "mesh": 0,
      "translation": [
        4,
        0,
        0
      ],
      "extras": {
        "id": "APIServer",
        "name": "API Server",
        "type": null,
        "subgraph": "Control Plane"
      }
    },
    {
      "name": "Scheduler",
      "mesh": 0,
      "translation": [
        4,
        -3,
        0
      ],
      "extras": {
        "id": "Scheduler",
        "name": "Scheduler",
        "type": null,
        "subgraph": "Control Plane"
      }
    },
    {
      "name": "ControllerMgr",
      "mesh": 0,
      "translation": [
        4,
        -6,
        0
      ],
      "extras": {
        "id": "ControllerMgr",
        "name": "Controller Manager",
        "type": null,
        "subgraph": "Control Plane"
      }
    },
    {
      "name": "HelpsiteDep",
      "mesh": 0,
      "translation": [
        12,
        0,
        0
      ],
      "extras": {
        "id": "HelpsiteDep",
        "name": "\"Deployment: helpsite\\n(Django",
        "type": null,
        "subgraph": "Application Workloads"
      }
    },
    {
      "name": "HelpsiteSvc",
      "mesh": 0,
      "translation": [
        12,
        -3,
        0
      ],
      "extras": {
        "id": "HelpsiteSvc",
        "name": "\"Service: helpsite\"",
        "type": null,
        "subgraph": "Application Workloads"
      }
    },
    {
      "name": "SpringDep",
      "mesh": 0,
      "translation": [
        12,
        -6,
        0
      ],
      "extras": {
        "id": "SpringDep",
        "name": "\"Deployment: spring-backend\\n(Spring Boot",
        "type": null,
        "subgraph": "Application Workloads"
      }
    },
    {
      "name": "SpringSvc",
      "mesh": 0,
      "translation": [
        12,
        -9,
        0
      ],
      "extras": {
        "id": "SpringSvc",
        "name": "\"Service: spring-backend\"",
        "type": null,
        "subgraph": "Application Workloads"
      }
    },
    {
      "name": "CPPDep",
      "mesh": 0,
      "translation": [
        12,
        -12,
        0
      ],
      "extras": {
        "id": "CPPDep",
        "name": "\"Deployment: cpp-stock-ui-sidecar\\n(C++ app + log-sidecar",
        "type": null,
        "subgraph": "Application Workloads"
      }
    },
    {
      "name": "CPPSvc",
      "mesh": 0,
      "translation": [
        12,
        -15,
        0
      ],
      "extras": {
        "id": "CPPSvc",
        "name": "\"Service: cpp-stock-ui-sidecar\"",
        "type": null,
        "subgraph": "Application Workloads"
      }
    },
    {
      "name": "PythonGUIDep",
      "mesh": 0,
      "translation": [
        12,
        -18,
        0
      ],
      "extras": {
        "id": "PythonGUIDep",
        "name": "\"Deployment: python-watchlist-gui\\n(Python GUI",
        "type": null,
        "subgraph": "Application Workloads"
      }
    },
    {
      "name": "PythonGUISvc",
      "mesh": 0,
      "translation": [
        12,
        -21,
        0
      ],
      "extras": {
        "id": "PythonGUISvc",
        "name": "\"Service: python-watchlist-gui\"",
        "type": null,
        "subgraph": "Application Workloads"
      }
    },
    {
      "name": "DashboardDep",
      "mesh": 0,
      "translation": [
        12,
        -24,
        0
      ],
      "extras": {
        "id": "DashboardDep",
        "name": "\"Deployment: dashboard-service\\n(Flask",
        "type": null,
        "subgraph": "Application Workloads"
      }
    },
    {
      "name": "DashboardSvc",
      "mesh": 0,
      "translation": [
        12,
        -27,
        0
      ],
      "extras": {
        "id": "DashboardSvc",
        "name": "\"Service: dashboard\"",
        "type": null,
        "subgraph": "Application Workloads"
      }
    },
    {
      "name": "LogCollectorDep",
      "mesh": 0,
      "translation": [
        12,
        -30,
        0
      ],
      "extras": {
        "id": "LogCollectorDep",
        "name": "\"Deployment: log-collector\\n(Python/Flask",
        "type": null,
        "subgraph": "Application Workloads"
      }
    },
    {
      "name": "LogCollectorSvc",
      "mesh": 0,
      "translation": [
        12,
        -33,
        0
      ],
      "extras": {
        "id": "LogCollectorSvc",
        "name": "\"Service: log-collector\"",
        "type": null,
        "subgraph": "Application Workloads"
      }
    },
    {
      "name": "ThreeRendererDep",
      "mesh": 0,
      "translation": [
        12,
        -36,
        0
      ],
      "extras": {
        "id": "ThreeRendererDep",
        "name": "\"Deployment: three-renderer\\n(Node/Express",
        "type": null,
        "subgraph": "Application Workloads"
      }
    },
    {
      "name": "ThreeRendererSvc",
      "mesh": 0,
      "translation": [
        12,
        -39,
        0
      ],
      "extras": {
        "id": "ThreeRendererSvc",
        "name": "\"Service: three-renderer\"",
        "type": null,
        "subgraph": "Application Workloads"
      }
    },
    {
      "name": "PrometheusDep",
      "mesh": 0,
      "translation": [
        16,
        0,
        0
      ],
      "extras": {
        "id": "PrometheusDep",
        "name": "\"Prometheus\\n(Deployment/Service",
        "type": null,
        "subgraph": "Observability"
      }
    },
    {
      "name": "GrafanaDep",
      "mesh": 0,
      "translation": [
        16,
        -3,
        0
      ],
      "extras": {
        "id": "GrafanaDep",
        "name": "\"Grafana\\n(Deployment/Service",
        "type": null,
        "subgraph": "Observability"
      }
    },
    {
      "name": "LokiDep",
      "mesh": 0,
      "translation": [
        16,
        -6,
        0
      ],
      "extras": {
        "id": "LokiDep",
        "name": "\"Loki\\n(Deployment/Service",
        "type": null,
        "subgraph": "Observability"
      }
    },
    {
      "name": "PromtailDS",
      "mesh": 0,
      "translation": [
        16,
        -9,
        0
      ],
      "extras": {
        "id": "PromtailDS",
        "name": "\"Promtail\\n(DaemonSet",
        "type": null,
        "subgraph": "Observability"
      }
    },
    {
      "name": "SQLite",
      "mesh": 0,
      "translation": [
        20,
        0,
        0
      ],
      "extras": {
        "id": "SQLite",
        "name": "\"SQLite (local files",
        "type": null,
        "subgraph": "Data & Messaging"
      }
    },
    {
      "name": "OtherDBs",
      "mesh": 0,
      "translation": [
        20,
        -3,
        0
      ],
      "extras": {
        "id": "OtherDBs",
        "name": "\"External DBs (none detected",
        "type": null,
        "subgraph": "Data & Messaging"
      }
    },
    {
      "name": "MQ",
      "mesh": 0,
      "translation": [
        20,
        -6,
        0
      ],
      "extras": {
        "id": "MQ",
        "name": "\"Message Queue (none detected",
        "type": null,
        "subgraph": "Data & Messaging"
      }
    }
  ],
  "meshes": [
    {
      "primitives": [
        {
          "attributes": {
            "POSITION": 0
          },
          "indices": 1,
          "mode": 4
        }
      ]
    }
  ],
  "buffers": [
    {
      "byteLength": 168,
      "uri": "data:application/octet-stream;base64,"
    }
  ],
  "bufferViews": [
    {
      "buffer": 0,
      "byteOffset": 0,
      "byteLength": 96,
      "target": 34962
    },
    {
      "buffer": 0,
      "byteOffset": 96,
      "byteLength": 72,
      "target": 34963
    }
  ],
  "accessors": [
    {
      "bufferView": 0,
      "byteOffset": 0,
      "componentType": 5126,
      "count": 8,
      "type": "VEC3",
      "min": [
        -0.5,
        -0.5,
        -0.5
      ],
      "max": [
        0.5,
        0.5,
        0.5
      ]
    },
    {
      "bufferView": 1,
      "byteOffset": 0,
      "componentType": 5123,
      "count": 36,
      "type": "SCALAR"
    }
  ]
}